HIERARCHY
ROOT Hips
{
 OFFSET 0.000000 0.000000 0.000000
 CHANNELS 6 Xposition Yposition Zposition Yrotation Xrotation Zrotation
 JOINT Chest
 {
  OFFSET 0.000000 9.588913 -0.003946
  CHANNELS 3 Yrotation Xrotation Zrotation
  JOINT Chest2
  {
   OFFSET 0.000000 9.541882 0.008053
   CHANNELS 3 Yrotation Xrotation Zrotation
   JOINT Chest3
   {
    OFFSET 0.000000 9.501360 0.000000
    CHANNELS 3 Yrotation Xrotation Zrotation
    JOINT Chest4
    {
     OFFSET 0.000000 9.491660 0.000000
     CHANNELS 3 Yrotation Xrotation Zrotation
     JOINT Neck
     {
      OFFSET 0.000000 14.331917 0.000000
      CHANNELS 3 Yrotation Xrotation Zrotation
      JOINT Head
      {
       OFFSET 0.000000 8.884799 0.017034
       CHANNELS 3 Yrotation Xrotation Zrotation
       End Site
       {
        OFFSET 0.000000 16.896195 0.008993
       }
      }
     }
     JOINT RightCollar
     {
      OFFSET -2.923010 9.499495 0.000000
      CHANNELS 3 Yrotation Xrotation Zrotation
      JOINT RightShoulder
      {
       OFFSET -13.795216 0.000000 0.000000
       CHANNELS 3 Yrotation Xrotation Zrotation
       JOINT RightElbow
       {
        OFFSET -30.272209 0.000000 0.000000
        CHANNELS 3 Yrotation Xrotation Zrotation
        JOINT RightWrist
        {
         OFFSET -24.478199 0.000000 0.000000
         CHANNELS 3 Yrotation Xrotation Zrotation
         End Site
         {
          OFFSET -18.090752 0.000000 0.000000
         }
        }
       }
      }
     }
     JOINT LeftCollar
     {
      OFFSET 2.923010 9.499495 0.000000
      CHANNELS 3 Yrotation Xrotation Zrotation
      JOINT LeftShoulder
      {
       OFFSET 13.795216 0.000000 0.000000
       CHANNELS 3 Yrotation Xrotation Zrotation
       JOINT LeftElbow
       {
        OFFSET 30.272209 0.000000 0.000000
        CHANNELS 3 Yrotation Xrotation Zrotation
        JOINT LeftWrist
        {
         OFFSET 24.478199 0.000000 0.000000
         CHANNELS 3 Yrotation Xrotation Zrotation
         End Site
         {
          OFFSET 18.090752 0.000000 0.000000
         }
        }
       }
      }
     }
    }
   }
  }
 }
 JOINT RightHip
 {
  OFFSET -7.826875 0.019532 0.001973
  CHANNELS 3 Yrotation Xrotation Zrotation
  JOINT RightKnee
  {
   OFFSET 0.000000 -40.546152 -0.001885
   CHANNELS 3 Yrotation Xrotation Zrotation
   JOINT RightAnkle
   {
    OFFSET 0.000000 -39.417092 -0.003189
    CHANNELS 3 Yrotation Xrotation Zrotation
    JOINT RightToe
    {
     OFFSET 0.000000 -7.579396 17.243563
     CHANNELS 3 Yrotation Xrotation Zrotation
     End Site
     {
      OFFSET 0.000000 -1.500329 6.694466
     }
    }
   }
  }
 }
 JOINT LeftHip
 {
  OFFSET 7.826875 0.019532 0.001973
  CHANNELS 3 Yrotation Xrotation Zrotation
  JOINT LeftKnee
  {
   OFFSET 0.000000 -40.546152 -0.001885
   CHANNELS 3 Yrotation Xrotation Zrotation
   JOINT LeftAnkle
   {
    OFFSET 0.000000 -39.417092 -0.003189
    CHANNELS 3 Yrotation Xrotation Zrotation
    JOINT LeftToe
    {
     OFFSET 0.000000 -7.579396 17.243563
     CHANNELS 3 Yrotation Xrotation Zrotation
     End Site
     {
      OFFSET 0.000000 -1.500329 6.694466
     }
    }
   }
  }
 }
}
MOTION
Frames: 12
Frame Time: 0.008333
0.000000 87.345680 0.000000 0.000000 -5.767889 0.000000 0.000000 11.653876 0.000000 0.000000 -5.885988 0.000000 0.000000 -0.000000 0.000000 0.000000 -0.000000 0.000000 0.000000 12.528808 0.000000 0.000000 0.711711 0.000000 0.000000 -0.000000 0.000000 0.000000 -0.000000 0.000000 2.309063 -0.000000 0.000000 -2.309063 -0.000000 -0.000000 0.000000 -0.000000 0.000000 0.000000 0.000000 0.000000 -2.309063 0.000000 0.000000 2.309063 -0.000000 0.000000 0.000000 8.520374 0.000000 0.000000 1.905768 0.000000 -0.000000 -4.658254 0.000000 0.000000 -0.000000 0.000000 0.000000 8.520374 0.000000 0.000000 1.905768 0.000000 -0.000000 -4.658254 0.000000 0.000000 -0.000000 0.000000
-2.702039 89.122555 -12.449199 163.240793 -7.980619 1.312818 6.854650 3.598690 -0.437417 3.925385 2.053127 -0.318410 4.905734 2.569439 -0.376021 3.925386 2.053127 -0.318410 20.604072 28.294365 -0.631483 24.827791 8.351827 -5.332233 2.305534 -5.369070 -1.576570 -5.140489 -31.229569 67.588993 47.129506 1.666169 10.756955 13.010877 -8.920231 -3.628285 -7.936144 -0.663212 1.879091 11.149794 -2.243759 -89.969903 0.739118 -11.852887 -1.689722 -2.340403 -1.534725 1.538320 -11.824255 11.039594 -3.231530 2.321246 2.783843 0.136152 2.663645 -6.198642 -0.596508 -0.006482 0.043953 -0.001358 4.220748 7.503049 0.981399 -6.629293 3.851698 -0.528988 -7.862381 -4.276817 0.099994 -0.005197 -0.050585 -0.002096
-2.703791 89.122817 -12.456362 163.352422 -7.970382 1.315408 6.823509 3.591468 -0.434671 3.908095 2.048423 -0.316583 4.884129 2.563529 -0.373885 3.908096 2.048423 -0.316583 20.610432 28.300707 -0.640761 24.839329 8.363243 -5.344368 2.211669 -5.269010 -1.484710 -5.747097 -30.806502 67.877436 48.242779 1.442083 11.033392 13.028945 -8.915386 -3.677206 -7.902093 -0.619309 1.857488 11.224237 -2.208960 -89.981155 0.694220 -11.864361 -1.717319 -2.352807 -1.543938 1.544069 -11.870172 11.050918 -3.233458 2.306766 2.767168 0.125734 2.611402 -6.203989 -0.588292 -0.005903 0.042492 0.000626 4.179129 7.490135 0.970953 -6.638826 3.838401 -0.535585 -7.903705 -4.257288 0.104234 -0.004114 -0.052148 0.000832
-2.706013 89.123342 -12.464901 163.468208 -7.960470 1.320073 6.791992 3.584685 -0.433026 3.890707 2.044365 -0.315558 4.862396 2.558434 -0.372744 3.890707 2.044365 -0.315557 20.613349 28.307306 -0.646399 24.845145 8.373654 -5.351429 2.122449 -5.170576 -1.391934 -6.382530 -30.328585 68.187347 49.397658 1.136631 11.325486 13.061857 -8.931449 -3.747417 -7.869390 -0.578585 1.838667 11.277317 -2.175787 -89.989725 0.663959 -11.876626 -1.736309 -2.355455 -1.546442 1.547749 -11.919212 11.062367 -3.237226 2.295416 2.752492 0.114466 2.551224 -6.211479 -0.579210 -0.005417 0.040887 0.002193 4.130377 7.477709 0.959038 -6.648485 3.824234 -0.542459 -7.952890 -4.236063 0.105346 -0.003455 -0.054812 0.005116
-2.708768 89.124008 -12.473686 163.588745 -7.946958 1.324801 6.760082 3.576098 -0.431573 3.873103 2.039617 -0.314353 4.840395 2.552475 -0.371386 3.873103 2.039617 -0.314353 20.611486 28.314777 -0.648090 24.843349 8.383512 -5.352742 2.035156 -5.057504 -1.298548 -7.040745 -29.803568 68.515370 50.591115 0.741601 11.644688 13.104865 -8.971509 -3.851676 -7.833961 -0.538250 1.820417 11.307065 -2.149515 -89.994735 0.654990 -11.883853 -1.744999 -2.348122 -1.541154 1.549542 -11.967229 11.068390 -3.239058 2.287165 2.742903 0.100700 2.484433 -6.221824 -0.568245 -0.004948 0.038965 0.003491 4.074131 7.461065 0.946059 -6.659132 3.809358 -0.547682 -8.007868 -4.213071 0.102995 -0.003239 -0.058137 0.009927
-2.712226 89.124731 -12.482384 163.714191 -7.930086 1.329702 6.726638 3.564516 -0.429594 3.854513 2.033208 -0.312920 4.817163 2.544437 -0.369766 3.854514 2.033207 -0.312919 20.606863 28.323918 -0.646463 24.836899 8.394492 -5.349452 1.948229 -4.921200 -1.205231 -7.727292 -29.241004 68.862647 51.812200 0.275001 11.997449 13.158747 -9.035946 -3.981572 -7.792424 -0.494324 1.799662 11.313255 -2.130557 -89.993172 0.666737 -11.885385 -1.741384 -2.332390 -1.529890 1.544748 -12.016571 11.068803 -3.239562 2.280474 2.738373 0.083511 2.416406 -6.234480 -0.554207 -0.004240 0.036636 0.004133 4.014069 7.440305 0.931286 -6.670326 3.794550 -0.554704 -8.059394 -4.187781 0.101497 -0.002547 -0.062073 0.014901
-2.716620 89.125370 -12.490749 163.842375 -7.909777 1.335506 6.691742 3.549587 -0.427059 3.835055 2.024594 -0.311313 4.792845 2.533642 -0.367956 3.835055 2.024594 -0.311313 20.601370 28.334531 -0.643158 24.828833 8.407025 -5.343918 1.859273 -4.764974 -1.112400 -8.451962 -28.649526 69.232174 53.047130 -0.226936 12.390924 13.222607 -9.114055 -4.123507 -7.744656 -0.442669 1.775230 11.296993 -2.121397 -89.986307 0.695559 -11.884014 -1.724573 -2.308995 -1.515174 1.533773 -12.068220 11.064705 -3.240230 2.271996 2.735422 0.064083 2.352158 -6.248077 -0.538350 -0.003115 0.034764 0.004643 3.954008 7.413651 0.916379 -6.683304 3.782423 -0.562985 -8.119705 -4.162321 0.101921 -0.002437 -0.065952 0.017826
-2.721933 89.125761 -12.498640 163.969011 -7.886124 1.341548 6.657491 3.533321 -0.424011 3.815992 2.014975 -0.309272 4.769026 2.521586 -0.365609 3.815993 2.014975 -0.309271 20.594420 28.343312 -0.640547 24.818928 8.416800 -5.338980 1.761717 -4.598101 -1.020145 -9.213843 -28.040117 69.620228 54.283238 -0.729357 12.824045 13.297856 -9.188416 -4.268593 -7.696121 -0.385522 1.748860 11.269257 -2.121039 -89.978724 0.735863 -11.878949 -1.698352 -2.283325 -1.493980 1.523873 -12.120854 11.056141 -3.240924 2.256891 2.733579 0.044627 2.296815 -6.262400 -0.523174 -0.001771 0.033828 0.005665 3.898139 7.380178 0.904065 -6.697667 3.774747 -0.569512 -8.202086 -4.139491 0.101672 -0.003850 -0.068917 0.018232
-2.728062 89.125769 -12.506102 164.092549 -7.859886 1.346118 6.625325 3.518364 -0.419130 3.798026 2.006142 -0.306606 4.746581 2.510507 -0.362468 3.798027 2.006142 -0.306606 20.584809 28.346353 -0.640950 24.806079 8.418521 -5.337310 1.650920 -4.429917 -0.929601 -10.004994 -27.415398 70.019321 55.515670 -1.201703 13.285417 13.392281 -9.240470 -4.416606 -7.650930 -0.330513 1.722181 11.241777 -2.123002 -89.974030 0.779815 -11.870591 -1.666574 -2.260114 -1.470471 1.521463 -12.174384 11.043866 -3.241618 2.235485 2.732939 0.027930 2.252281 -6.276516 -0.510844 -0.000329 0.033259 0.007651 3.847066 7.342586 0.891525 -6.712272 3.770743 -0.575043 -8.278779 -4.119992 0.102657 -0.004285 -0.070192 0.018217
-2.735226 89.125295 -12.513102 164.212453 -7.830428 1.348738 6.595773 3.505000 -0.411439 3.781600 1.998271 -0.302996 4.726065 2.500622 -0.358127 3.781600 1.998271 -0.302996 20.572729 28.343223 -0.645689 24.790917 8.411828 -5.340538 1.524239 -4.258695 -0.844932 -10.817034 -26.774409 70.425897 56.742542 -1.618456 13.763960 13.519565 -9.257679 -4.580707 -7.611158 -0.280145 1.695398 11.223014 -2.123834 -89.973930 0.824902 -11.861717 -1.632607 -2.243926 -1.454351 1.524109 -12.225556 11.028383 -3.242053 2.213881 2.731426 0.015460 2.210873 -6.289261 -0.502372 0.000817 0.033265 0.011009 3.795281 7.302736 0.874500 -6.725792 3.768091 -0.581912 -8.319732 -4.103358 0.108509 -0.002250 -0.069092 0.018754
-2.743696 89.124383 -12.520074 164.327940 -7.799480 1.350031 6.568296 3.492994 -0.402290 3.766553 1.991191 -0.298239 4.707281 2.491714 -0.352335 3.766553 1.991191 -0.298238 20.560136 28.335404 -0.653849 24.775886 8.399106 -5.347924 1.378259 -4.072255 -0.768441 -11.633903 -26.128221 70.838209 57.951331 -1.963845 14.242500 13.694800 -9.248776 -4.768845 -7.575519 -0.230845 1.668259 11.217023 -2.124223 -89.977737 0.869509 -11.856834 -1.599135 -2.235594 -1.446489 1.527084 -12.272142 11.012338 -3.240864 2.193705 2.727702 0.003485 2.166419 -6.300912 -0.494800 0.000938 0.034373 0.014790 3.739567 7.262077 0.855505 -6.738048 3.766199 -0.589884 -8.341130 -4.089877 0.117494 0.000040 -0.065860 0.019070
-2.753756 89.123168 -12.527518 164.442435 -7.769106 1.350598 6.539441 3.481464 -0.393060 3.750761 1.984559 -0.292798 4.687568 2.483359 -0.345687 3.750761 1.984558 -0.292797 20.550955 28.324084 -0.664138 24.765992 8.382797 -5.358710 1.213922 -3.863166 -0.695883 -12.430356 -25.485866 71.252374 59.126587 -2.234497 14.698229 13.916287 -9.231014 -4.977383 -7.537042 -0.177993 1.641655 11.225470 -2.121116 -89.984333 0.907385 -11.859389 -1.569411 -2.230713 -1.440643 1.531999 -12.319550 10.998078 -3.239419 2.173251 2.721401 -0.010369 2.121999 -6.311797 -0.484682 -0.000046 0.036293 0.017445 3.679954 7.222735 0.837352 -6.752819 3.762757 -0.598836 -8.361380 -4.077995 0.127270 0.001767 -0.061195 0.019143
